#!OML:ASF H:\LiuWeirdWalks\Patient Classification 1\Patient 1\Session 1\male.ASF
:FULLY-SPECIFIED
:DEGREES
478
root 1.94133 17.774 12.4803 3.56408 1.99198 8.89275
lowerback 5.99494 -9.83396 -14.1945
upperback -0.435032 -14.0476 2.69501
thorax 0.265597 -7.06181 10.9411
lowerneck -8.59946 2.7384 7.28066
upperneck 12.1863 3.50853 -6.23942
head 5.31545 1.62907 -2.89408
rclavicle 9.43233e-014 1.59028e-015
rhumerus -52.4912 1.99145 -56.5435
rradius 42.1594
rwrist -3.54781
rhand -15.9204 7.20627
rfingers 7.12502
rthumb 10.2769 -22.5227
lclavicle 9.43233e-014 1.59028e-015
lhumerus -1.17784 -3.79904 79.9416
lradius 45.9676
lwrist 21.2954
lhand -18.5178 -5.75111
lfingers 7.12502
lthumb 7.77062 24.0861
rfemur -37.0686 -0.057851 7.44663
rtibia 26.4136
rfoot -9.12926 -14.8143
rtoes -10.6205
lfemur 21.104 -0.0137219 -30.1976
ltibia 9.54166e-014
lfoot -0.582251 8.69159
ltoes -24.5717
479
root 1.91604 17.7509 12.6504 3.59773 1.93761 8.99807
lowerback 6.04577 -10.0516 -14.3337
upperback -0.480701 -14.3576 2.71463
thorax 0.315724 -7.21953 11.0193
lowerneck -8.47361 2.83151 7.50736
upperneck 12.0155 3.62295 -6.36948
head 5.25575 1.68875 -2.96422
rclavicle 3.23025e-014 -2.22639e-014
rhumerus -53.104 1.2153 -54.3903
rradius 41.6665
rwrist -2.98264
rhand -15.7173 7.46194
rfingers 7.12502
rthumb 10.4729 -22.2572
lclavicle 3.23025e-014 -2.22639e-014
lhumerus -0.195635 -3.53657 79.9159
lradius 46.0716
lwrist 21.5743
lhand -18.4641 -5.77382
lfingers 7.12502
lthumb 7.82242 24.0615
rfemur -36.9158 0.41817 7.15704
rtibia 26.6711
rfoot -9.28473 -14.0915
rtoes -10.8968
lfemur 21.6148 -0.170248 -30.2445
ltibia -9.54166e-015
lfoot -0.150967 8.56036
ltoes -24.7556
480
root 1.89039 17.7255 12.8233 3.64654 1.90335 9.11082
lowerback 6.06406 -10.2387 -14.4464
upperback -0.542028 -14.6213 2.74249
thorax 0.350513 -7.352 11.0911
lowerneck -8.34731 2.88119 7.63979
upperneck 11.8337 3.68629 -6.46083
head 5.18677 1.72179 -3.01056
rclavicle 1.635e-013 2.54444e-014
rhumerus -53.7687 0.441494 -52.1811
rradius 41.2243
rwrist -2.60031
rhand -15.4602 7.626
rfingers 7.12502
rthumb 10.7209 -22.0804
lclavicle 1.635e-013 2.54444e-014
lhumerus 0.743821 -3.32923 80.0143
lradius 46.2227
lwrist 21.879
lhand -18.4228 -5.83952
lfingers 7.12502
lthumb 7.86228 23.9943
rfemur -36.722 0.860244 6.86363
rtibia 27.0427
rfoot -9.34662 -13.5452
rtoes -11.0832
lfemur 22.1216 -0.348382 -30.3057
ltibia 3.18055e-014
lfoot 0.315401 8.43111
ltoes -24.831
481
root 1.86407 17.6994 13.0001 3.70979 1.89998 9.18764
lowerback 5.98447 -10.2903 -14.4231
upperback -0.625941 -14.6817 2.82313
thorax 0.337624 -7.37845 11.1515
lowerneck -8.29715 2.75356 7.33556
upperneck 11.6969 3.54164 -6.3755
head 5.11821 1.64391 -2.94439
rclavicle 6.85807e-014 -7.15625e-015
rhumerus -54.6953 -0.495187 -49.6543
rradius 40.8645
rwrist -2.4468
rhand -15.1265 7.77243
rfingers 7.12502
rthumb 11.0427 -21.9171
lclavicle 6.85807e-014 -7.15625e-015
lhumerus 1.71939 -3.4508 80.5055
lradius 46.379
lwrist 22.1989
lhand -18.4062 -5.93958
lfingers 7.12502
lthumb 7.87833 23.8936
rfemur -36.4858 1.18695 6.6656
rtibia 27.4763
rfoot -9.24918 -13.232
rtoes -11.2677
lfemur 22.6271 -0.556759 -30.3346
ltibia 8.5875e-014
lfoot 0.823012 8.31598
ltoes -24.8109
482
root 1.8383 17.675 13.1812 3.78339 1.94262 9.2376
lowerback 5.90807 -10.4211 -14.384
upperback -0.692888 -14.8459 2.89061
thorax 0.364433 -7.46095 11.1772
lowerneck -8.30763 2.71675 7.23594
upperneck 11.5843 3.50123 -6.38115
head 5.0806 1.61935 -2.93226
rclavicle 9.58142e-014 -3.97569e-014
rhumerus -55.4836 -1.25899 -47.3392
rradius 40.5079
rwrist -2.40132
rhand -14.8633 7.80121
rfingers 7.12502
rthumb 11.2966 -21.8746
lclavicle 9.58142e-014 -3.97569e-014
lhumerus 2.61113 -3.41476 80.8677
lradius 46.6076
lwrist 22.5473
lhand -18.4133 -6.07428
lfingers 7.12502
lthumb 7.87142 23.7592
rfemur -36.2168 1.25481 6.60769
rtibia 27.932
rfoot -8.90083 -13.1141
rtoes -11.4727
lfemur 23.1356 -0.806782 -30.3496
ltibia 3.18055e-014
lfoot 1.38113 8.22933
ltoes -24.7068
483
root 1.81224 17.6559 13.3657 3.88062 2.01647 9.19263
lowerback 5.80567 -10.5548 -14.2393
upperback -0.764537 -15.0031 2.99532
thorax 0.382933 -7.53997 11.1839
lowerneck -8.37156 2.68617 7.13116
upperneck 11.5142 3.47051 -6.40502
head 5.06609 1.5973 -2.92398
rclavicle -3.45885e-014 1.59028e-014
rhumerus -56.2608 -1.94977 -45.0656
rradius 40.1656
rwrist -2.41122
rhand -14.687 7.73564
rfingers 7.12502
rthumb 11.4666 -21.9308
lclavicle -3.45885e-014 1.59028e-014
lhumerus 3.47218 -3.39838 81.2753
lradius 46.8511
lwrist 22.8528
lhand -18.4163 -6.20834
lfingers 7.12502
lthumb 7.8685 23.6252
rfemur -35.9648 1.10707 6.76133
rtibia 28.3751
rfoot -8.19049 -13.2727
rtoes -11.6775
lfemur 23.618 -1.0849 -30.2726
ltibia -3.49861e-014
lfoot 2.01235 8.16713
ltoes -24.5242
484
root 1.78723 17.6445 13.5535 3.99006 2.10766 9.05265
lowerback 5.68493 -10.7096 -13.9924
upperback -0.823543 -15.1782 3.12586
thorax 0.41204 -7.63033 11.1581
lowerneck -8.48081 2.69093 7.09048
upperneck 11.4646 3.48316 -6.4759
head 5.07059 1.59553 -2.93753
rclavicle -4.09496e-014 -2.22639e-014
rhumerus -56.9766 -2.5404 -42.905
rradius 39.8215
rwrist -2.34305
rhand -14.6343 7.62828
rfingers 7.12502
rthumb 11.5174 -22.0353
lclavicle -4.09496e-014 -2.22639e-014
lhumerus 4.30367 -3.33043 81.676
lradius 47.1083
lwrist 23.0803
lhand -18.42 -6.35901
lfingers 7.12502
lthumb 7.86498 23.4747
rfemur -35.7466 0.694081 7.13821
rtibia 28.7802
rfoot -7.02738 -13.6463
rtoes -11.8415
lfemur 24.0806 -1.37279 -30.1114
ltibia -5.08889e-014
lfoot 2.74065 8.13273
ltoes -24.2274
485
root 1.76392 17.6412 13.7438 4.10937 2.19951 8.81359
lowerback 5.5873 -10.9278 -13.6715
upperback -0.867469 -15.4356 3.27391
thorax 0.454017 -7.76448 11.1071
lowerneck -8.65611 2.79053 7.25043
upperneck 11.4715 3.60743 -6.64394
head 5.11708 1.6496 -3.00599
rclavicle 2.06935e-013 -2.38542e-014
rhumerus -57.5039 -2.99176 -40.9724
rradius 39.4438
rwrist -2.16273
rhand -14.6814 7.51714
rfingers 7.12502
rthumb 11.4721 -22.149
lclavicle 2.06935e-013 -2.38542e-014
lhumerus 5.07198 -3.10029 81.9531
lradius 47.3917
lwrist 23.27
lhand -18.4145 -6.51164
lfingers 7.12502
lthumb 7.87027 23.3219
rfemur -35.574 0.0267474 7.73079
rtibia 29.1334
rfoot -5.40037 -14.1812
rtoes -11.912
lfemur 24.5185 -1.65131 -29.867
ltibia 5.08889e-014
lfoot 3.60496 8.1135
ltoes -23.749
486
root 1.74273 17.6455 13.935 4.24484 2.25098 8.44965
lowerback 5.49144 -11.1461 -13.2218
upperback -0.907917 -15.6853 3.46312
thorax 0.473901 -7.89434 11.0357
lowerneck -8.85894 2.92386 7.48208
upperneck 11.4769 3.77361 -6.87619
head 5.17394 1.7225 -3.10294
rclavicle -4.04527e-014 3.97569e-015
rhumerus -57.9288 -3.3869 -39.1386
rradius 39.0203
rwrist -1.79779
rhand -14.777 7.48327
rfingers 7.12502
rthumb 11.3798 -22.1879
lclavicle -4.04527e-014 3.97569e-015
lhumerus 5.80905 -2.79927 82.2423
lradius 47.6676
lwrist 23.3766
lhand -18.3835 -6.67767
lfingers 7.12502
lthumb 7.90021 23.1547
rfemur -35.465 -0.852844 8.56452
rtibia 29.435
rfoot -3.4849 -14.6825
rtoes -11.7567
lfemur 24.9155 -1.87936 -29.5135
ltibia -1.27222e-014
lfoot 4.60096 8.10105
ltoes -23.2276
487
root 1.72412 17.6549 14.1272 4.38959 2.24061 8.0007
lowerback 5.37754 -11.3216 -12.6649
upperback -0.958031 -15.8699 3.68673
thorax 0.455137 -7.98892 10.9519
lowerneck -9.06481 3.03709 7.66955
upperneck 11.4892 3.91879 -7.11249
head 5.2318 1.78259 -3.19538
rclavicle -8.13029e-014 -9.54166e-015
rhumerus -58.338 -3.77307 -37.3261
rradius 38.571
rwrist -1.40856
rhand -14.8683 7.54084
rfingers 7.12502
rthumb 11.2918 -22.1352
lclavicle -8.13029e-014 -9.54166e-015
lhumerus 6.49155 -2.53777 82.6226
lradius 47.935
lwrist 23.4257
lhand -18.3472 -6.8468
lfingers 7.12502
lthumb 7.93528 22.9843
rfemur -35.3985 -1.91246 9.5888
rtibia 29.7037
rfoot -1.58672 -14.8737
rtoes -11.3861
lfemur 25.2791 -2.03415 -29.0987
ltibia -1.27222e-014
lfoot 5.70045 8.10972
ltoes -22.7295
488
root 1.7079 17.6684 14.3179 4.55369 2.13413 7.45715
lowerback 5.26775 -11.4693 -12.0205
upperback -1.01152 -16.0131 3.94172
thorax 0.403453 -8.06115 10.8639
lowerneck -9.23123 3.16744 7.9222
upperneck 11.4576 4.08543 -7.40413
head 5.27424 1.85298 -3.31451
rclavicle 2.127e-014 9.54166e-015
rhumerus -58.6554 -4.11443 -35.6369
rradius 38.0758
rwrist -1.00537
rhand -14.9846 7.67552
rfingers 7.12502
rthumb 11.1796 -22.0066
lclavicle 2.127e-014 9.54166e-015
lhumerus 7.09817 -2.21993 83.0386
lradius 48.2237
lwrist 23.4474
lhand -18.3245 -7.02988
lfingers 7.12502
lthumb 7.95713 22.8003
rfemur -35.3698 -3.01649 10.7831
rtibia 29.9598
rfoot 0.00332149 -14.6224
rtoes -10.8546
lfemur 25.5875 -2.08267 -28.6114
ltibia -5.725e-014
lfoot 6.9077 8.13456
ltoes -22.3295
489
root 1.6933 17.6851 14.5067 4.7324 1.93548 6.87248
lowerback 5.11309 -11.4829 -11.3053
upperback -1.08299 -15.9695 4.24857
thorax 0.302404 -8.03641 10.8068
lowerneck -9.37858 3.18391 7.91883
upperneck 11.3555 4.12345 -7.6272
head 5.27512 1.85431 -3.37985
rclavicle -9.14409e-015 -1.35174e-014
rhumerus -59.1 -4.53987 -33.8032
rradius 37.5581
rwrist -0.656061
rhand -15.0318 7.90958
rfingers 7.12502
rthumb 11.1341 -21.775
lclavicle -9.14409e-015 -1.35174e-014
lhumerus 7.68072 -2.12732 83.7348
lradius 48.4895
lwrist 23.4393
lhand -18.3336 -7.22777
lfingers 7.12502
lthumb 7.94838 22.6028
rfemur -35.3123 -4.04258 12.042
rtibia 30.1482
rfoot 1.10571 -14.0013
rtoes -10.1685
lfemur 25.8451 -2.0304 -28.1054
ltibia -1.90833e-014
lfoot 8.22524 8.17389
ltoes -22.0534
